# File created by Blade
# Date/Time:  Tue Apr 07 20:29:43 2015
#---------------------------------------------------------
:version 1.10
:name HOM
:units
  mass 1.0
  length 1.000000
  angle deg
:documentation
     Acclaim Skeleton File
:root
   axis xyz
   order TX TY TZ RX RY RZ
   position 0.000000 0.000000 0.000000
   orientation 0 0 0
:bonedata
   begin
      id 1
      name Spine_dum
      direction 0.000000 1.000000 0.000000
      length 4.885285
      axis 0.0 0.0 0.0 xyz
   end
   begin
      id 2
      name LeftUpLeg_dum
      direction 1.000000 0.000000 0.000000
      length 2.672193
      axis 0.0 0.0 0.0 xyz
   end
   begin
      id 3
      name RightUpLeg_dum
      direction -1.000000 0.000000 0.000000
      length 2.672193
      axis 0.0 0.0 0.0 xyz
   end
   begin
      id 4
      name Spine
      direction 0.000000 1.000000 0.000000
      length 0.000000
      axis 0.0 0.0 0.0 xyz
      dof rx ry rz
   end
   begin
      id 5
      name Spine_dum1
      direction 0.000000 1.000000 0.000000
      length 16.494159
      axis 0.0 0.0 0.0 xyz
   end
   begin
      id 6
      name Spine_dum2
      direction 0.000000 1.000000 0.000000
      length 10.663448
      axis 0.0 0.0 0.0 xyz
   end
   begin
      id 7
      name Spine_dum3
      direction 0.000000 1.000000 0.000000
      length 10.663448
      axis 0.0 0.0 0.0 xyz
   end
   begin
      id 8
      name Head
      direction 0.000000 1.000000 0.000000
      length 4.527550
      axis 0.0 0.0 0.0 xyz
      dof rx ry rz
   end
   begin
      id 9
      name LeftShoulder
      direction 1.000000 0.000000 0.000000
      length 7.531907
      axis 0.0 0.0 -90.0 xyz
      dof rx ry rz
   end
   begin
      id 10
      name LeftArm
      direction 1.000000 0.000000 0.000000
      length 10.229199
      axis 0.0 0.0 -90.0 xyz
      dof rx ry rz
   end
   begin
      id 11
      name LeftForeArm
      direction 1.000000 0.000000 0.000000
      length 8.673495
      axis 0.0 0.0 -90.0 xyz
      dof ry rz rx
   end
   begin
      id 12
      name LeftHand
      direction 0.000000 0.000000 0.000000
      length 0.000000
      axis 0.0 0.0 -90.0 xyz
      dof rx ry rz
   end
   begin
      id 13
      name LeftHand_dum1
      direction 0.000000 0.000000 0.000000
      length 0.000000
      axis 0.0 0.0 -90.0 xyz
   end
   begin
      id 14
      name LeftHand_dum2
      direction 1.000000 0.000000 0.000000
      length 3.937000
      axis 0.0 0.0 -90.0 xyz
   end
   begin
      id 15
      name LeftHandThumb1
      direction 0.000000 0.000000 1.000000
      length 3.937000
      axis 0.0 0.0 -90.0 xyz
      dof rx rz ry
   end
   begin
      id 16
      name RightShoulder
      direction -1.000000 0.000000 0.000000
      length 7.531907
      axis 0.0 0.0 90.0 xyz
      dof rx ry rz
   end
   begin
      id 17
      name RightArm
      direction -1.000000 0.000000 0.000000
      length 10.229199
      axis 0.0 0.0 90.0 xyz
      dof rx ry rz
   end
   begin
      id 18
      name RightForeArm
      direction -1.000000 0.000000 0.000000
      length 8.673495
      axis 0.0 0.0 90.0 xyz
      dof ry rz rx
   end
   begin
      id 19
      name RightHand
      direction 0.000000 0.000000 0.000000
      length 0.000000
      axis 0.0 0.0 90.0 xyz
      dof rx ry rz
   end
   begin
      id 20
      name RightHand_dum1
      direction 0.000000 0.000000 0.000000
      length 0.000000
      axis 0.0 0.0 90.0 xyz
   end
   begin
      id 21
      name RightHand_dum2
      direction -1.000000 0.000000 0.000000
      length 3.937000
      axis 0.0 0.0 90.0 xyz
   end
   begin
      id 22
      name RightHandThumb1
      direction 0.000000 0.000000 1.000000
      length 3.937000
      axis 0.0 0.0 90.0 xyz
      dof rx rz ry
   end
   begin
      id 23
      name LeftUpLeg
      direction 0.000000 -1.000000 0.000000
      length 16.263388
      axis 0.0 0.0 0.0 xyz
      dof rx ry rz
   end
   begin
      id 24
      name LeftLeg
      direction 0.000000 -1.000000 0.000000
      length 14.328163
      axis 0.0 0.0 0.0 xyz
      dof rx ry rz
   end
   begin
      id 25
      name LeftFoot
      direction 0.000000 -0.258819 0.965926
      length 5.031290
      axis 15.0 0.0 0.0 xyz
      dof rx ry rz
   end
   begin
      id 26
      name LeftToeBase
      direction 0.000000 0.000000 1.000000
      length 2.952750
      axis 0.0 0.0 0.0 xyz
      dof rx ry rz
   end
   begin
      id 27
      name RightUpLeg
      direction 0.000000 -1.000000 0.000000
      length 16.263388
      axis 0.0 0.0 0.0 xyz
      dof rx ry rz
   end
   begin
      id 28
      name RightLeg
      direction 0.000000 -1.000000 0.000000
      length 14.328163
      axis 0.0 0.0 0.0 xyz
      dof rx ry rz
   end
   begin
      id 29
      name RightFoot
      direction 0.000000 -0.258819 0.965926
      length 5.031290
      axis 15.0 0.0 0.0 xyz
      dof rx ry rz
   end
   begin
      id 30
      name RightToeBase
      direction 0.000000 0.000000 1.000000
      length 2.952750
      axis 0.0 0.0 0.0 xyz
      dof rx ry rz
   end
:hierarchy
   begin
      root Spine_dum LeftUpLeg_dum RightUpLeg_dum
      Spine_dum Spine
      LeftUpLeg_dum LeftUpLeg
      RightUpLeg_dum RightUpLeg
      Spine Spine_dum1 Spine_dum2 Spine_dum3
      Spine_dum1 Head
      Spine_dum2 LeftShoulder
      Spine_dum3 RightShoulder
      LeftShoulder LeftArm
      LeftArm LeftForeArm
      LeftForeArm LeftHand
      LeftHand LeftHand_dum1 LeftHand_dum2
      LeftHand_dum1 LeftHandThumb1
      RightShoulder RightArm
      RightArm RightForeArm
      RightForeArm RightHand
      RightHand RightHand_dum1 RightHand_dum2
      RightHand_dum1 RightHandThumb1
      LeftUpLeg LeftLeg
      LeftLeg LeftFoot
      LeftFoot LeftToeBase
      RightUpLeg RightLeg
      RightLeg RightFoot
      RightFoot RightToeBase
   end

# File created by Blade
# Date/Time:  Tue Apr 07 20:29:34 2015
# Frame Rate: 120.000 fps
#------------------------------------------------------
:FULLY-SPECIFIED
:DEGREES
689
root 3.669354 33.225291 -2.570242 -21.945853 32.212393 -17.710694
Spine 13.150724 1.217261 10.028357
Head 13.114767 -1.813418 7.028144
LeftShoulder -19.417297 43.831490 9.378604
LeftArm 49.132936 -0.441321 -76.322007
LeftForeArm -0.776957 -0.000000 10.920923
LeftHand 6.920839 0.000000 -7.785154
LeftHandThumb1 -26.253704 0.000000 33.147579
RightShoulder -1.568548 -2.623963 -13.745209
RightArm 16.048579 -11.683228 71.049443
RightForeArm 3.565103 -0.000000 25.353542
RightHand 10.224445 -0.000000 6.057857
RightHandThumb1 -24.326973 -0.000000 -32.862282
LeftUpLeg 6.820327 -8.594707 9.768271
LeftLeg 18.630508 -0.000000 -0.000000
LeftFoot -10.281999 -6.170351 -13.532863
LeftToeBase -6.397507 -0.000000 0.000000
RightUpLeg -102.954839 0.700890 26.302441
RightLeg 75.386299 -0.000000 -0.000000
RightFoot 43.093598 -8.822525 11.912274
RightToeBase 33.351469 -0.000000 -0.000000
690
root 3.701857 33.206522 -2.571043 -21.722694 32.596362 -17.227445
Spine 13.047973 1.217242 9.513150
Head 13.199240 -1.985735 6.896232
LeftShoulder -19.459519 43.831141 9.309907
LeftArm 48.980179 -0.601497 -76.446687
LeftForeArm -0.844176 -0.000000 10.728678
LeftHand 6.884078 -0.000000 -7.851387
LeftHandThumb1 -26.253704 0.000000 33.147579
RightShoulder -1.632673 -2.782483 -13.854380
RightArm 15.891854 -11.625365 71.205014
RightForeArm 3.499824 -0.000000 25.208990
RightHand 10.237903 0.000000 5.837485
RightHandThumb1 -24.326973 -0.000000 -32.862282
LeftUpLeg 6.816060 -8.414163 9.257304
LeftLeg 18.627442 -0.000000 -0.000000
LeftFoot -10.218794 -6.275444 -13.500723
LeftToeBase -6.206668 -0.000000 0.000000
RightUpLeg -103.329343 0.552628 26.800422
RightLeg 74.807056 -0.000000 -0.000000
RightFoot 42.811680 -9.936286 12.439545
RightToeBase 33.230770 -0.000000 -0.000000
691
root 3.735682 33.185499 -2.573025 -21.501434 33.007281 -16.727926
Spine 12.972155 1.193763 8.982398
Head 13.245410 -2.152063 6.759134
LeftShoulder -19.487984 43.838688 9.243575
LeftArm 48.826348 -0.817266 -76.614889
LeftForeArm -0.866671 0.000000 10.549362
LeftHand 6.777904 0.000000 -8.174747
LeftHandThumb1 -26.253704 0.000000 33.147579
RightShoulder -1.714688 -2.917582 -13.962728
RightArm 15.744572 -11.560622 71.349146
RightForeArm 3.435038 -0.000000 25.094709
RightHand 10.360592 -0.000000 5.917127
RightHandThumb1 -24.326973 -0.000000 -32.862282
LeftUpLeg 6.805203 -8.153260 8.747124
LeftLeg 18.655488 -0.000000 -0.000000
LeftFoot -10.175762 -6.467891 -13.475982
LeftToeBase -5.935317 -0.000000 0.000000
RightUpLeg -103.740044 0.377535 27.292392
RightLeg 74.322716 -0.000000 -0.000000
RightFoot 42.482743 -10.776047 12.761940
RightToeBase 33.147339 -0.000000 -0.000000
692
root 3.777008 33.158256 -2.584253 -21.159795 33.536666 -16.129740
Spine 12.821692 1.074535 8.338003
Head 13.280045 -2.292809 6.612058
LeftShoulder -19.541338 43.839043 9.152982
LeftArm 48.663675 -1.070587 -76.821732
LeftForeArm -0.882314 -0.000000 10.380504
LeftHand 6.738320 -0.000000 -8.220362
LeftHandThumb1 -26.253704 0.000000 33.147579
RightShoulder -1.785539 -3.041224 -14.088365
RightArm 15.606633 -11.521252 71.474586
RightForeArm 3.438482 0.000000 24.983157
RightHand 10.260824 0.000000 5.917225
RightHandThumb1 -24.326973 -0.000000 -32.862282
LeftUpLeg 6.697015 -7.960543 8.109881
LeftLeg 18.703032 -0.000000 -0.000000
LeftFoot -10.115898 -6.645334 -13.480137
LeftToeBase -5.884320 -0.000000 0.000000
RightUpLeg -104.305935 0.147629 27.664091
RightLeg 73.916522 -0.000000 -0.000000
RightFoot 42.248994 -11.324999 12.940680
RightToeBase 33.170612 -0.000000 -0.000000
693
root 3.809879 33.134759 -2.586100 -20.918884 33.890247 -15.513618
Spine 12.841897 1.102796 7.719337
Head 13.267945 -2.429282 6.511527
LeftShoulder -19.582127 43.857262 9.063975
LeftArm 48.513111 -1.380542 -77.014674
LeftForeArm -0.924917 -0.000000 10.259016
LeftHand 6.786737 -0.000000 -8.108120
LeftHandThumb1 -26.253704 0.000000 33.147579
RightShoulder -1.847040 -3.104359 -14.177645
RightArm 15.455808 -11.493106 71.590143
RightForeArm 3.352749 -0.000000 24.846681
RightHand 10.139354 0.000000 5.875937
RightHandThumb1 -24.326973 -0.000000 -32.862282
LeftUpLeg 6.740229 -7.483264 7.585236
LeftLeg 18.746168 -0.000000 -0.000000
LeftFoot -9.992805 -7.057367 -13.501589
LeftToeBase -5.725199 -0.000000 0.000000
RightUpLeg -104.669542 0.048026 28.067549
RightLeg 73.503628 -0.000000 -0.000000
RightFoot 42.082687 -11.740337 13.078491
RightToeBase 33.031844 -0.000000 -0.000000
694
root 3.839851 33.106200 -2.590050 -20.637816 34.279751 -14.840829
Spine 12.881090 1.092305 7.020792
Head 13.207710 -2.547999 6.423051
LeftShoulder -19.648836 43.845571 8.991089
LeftArm 48.335353 -1.688932 -77.187914
LeftForeArm -0.969847 0.000000 10.176880
LeftHand 6.808140 -0.000000 -8.101970
LeftHandThumb1 -26.253704 0.000000 33.147579
RightShoulder -1.900289 -3.108755 -14.286928
RightArm 15.289523 -11.508274 71.725798
RightForeArm 3.374253 0.000000 24.732025
RightHand 10.168478 0.000000 5.906949
RightHandThumb1 -24.326973 -0.000000 -32.862282
LeftUpLeg 6.789320 -7.145146 6.984054
LeftLeg 18.760581 -0.000000 -0.000000
LeftFoot -9.914389 -7.386550 -13.504655
LeftToeBase -5.562114 -0.000000 0.000000
RightUpLeg -105.065243 -0.051435 28.380310
RightLeg 73.119274 -0.000000 -0.000000
RightFoot 41.954462 -12.004354 13.271303
RightToeBase 32.999405 -0.000000 -0.000000
695
root 3.873984 33.078055 -2.593308 -20.405700 34.502329 -14.126717
Spine 13.036846 1.218368 6.382616
Head 13.097210 -2.641982 6.281230
LeftShoulder -19.727927 43.814825 8.858268
LeftArm 48.172709 -1.998417 -77.313484
LeftForeArm -1.115364 -0.000000 10.093442
LeftHand 6.728045 -0.000000 -8.044104
LeftHandThumb1 -26.253704 0.000000 33.147579
RightShoulder -1.952184 -3.103257 -14.408945
RightArm 15.148129 -11.463401 71.831292
RightForeArm 3.319364 -0.000000 24.575288
RightHand 9.985207 0.000000 5.807014
RightHandThumb1 -24.326973 -0.000000 -32.862282
LeftUpLeg 6.942866 -6.576601 6.452236
LeftLeg 18.781459 -0.000000 -0.000000
LeftFoot -9.745963 -7.966351 -13.482967
LeftToeBase -5.503480 -0.000000 0.000000
RightUpLeg -105.306130 -0.039702 28.713244
RightLeg 72.754817 -0.000000 -0.000000
RightFoot 41.891755 -12.060997 13.297581
RightToeBase 32.871259 -0.000000 -0.000000
696
root 3.890339 33.055820 -2.590430 -20.419829 34.527046 -13.616651
Spine 13.406413 1.427337 5.977904
Head 12.909103 -2.707928 6.130128
LeftShoulder -19.815859 43.749639 8.700367
LeftArm 48.015979 -2.385391 -77.521637
LeftForeArm -1.073314 -0.000000 10.056456
LeftHand 6.668922 -0.000000 -7.954433
LeftHandThumb1 -26.253704 0.000000 33.147579
RightShoulder -1.960644 -3.029668 -14.545672
RightArm 14.989012 -11.351420 71.961895
RightForeArm 3.249900 -0.000000 24.471280
RightHand 9.966874 -0.000000 5.690074
RightHandThumb1 -24.326973 -0.000000 -32.862282
LeftUpLeg 7.214540 -5.775361 6.243936
LeftLeg 18.853452 -0.000000 -0.000000
LeftFoot -9.519476 -8.883738 -13.610761
LeftToeBase -5.290396 -0.000000 0.000000
RightUpLeg -105.281874 0.072488 29.300128
RightLeg 72.303858 -0.000000 -0.000000
RightFoot 41.833318 -12.397441 13.319229
RightToeBase 32.707860 -0.000000 -0.000000
697
root 3.919490 33.022574 -2.594675 -20.160353 34.795629 -12.891481
Spine 13.567224 1.484978 5.293410
Head 12.738506 -2.794962 6.011055
LeftShoulder -19.933297 43.742246 8.545668
LeftArm 47.875621 -2.749364 -77.662499
LeftForeArm -1.116011 -0.000000 10.002886
LeftHand 6.902176 0.000000 -7.982091
LeftHandThumb1 -26.253704 0.000000 33.147579
RightShoulder -1.988703 -3.005816 -14.692366
RightArm 14.846328 -11.260884 72.116213
RightForeArm 3.393919 -0.000000 24.378243
RightHand 9.880557 -0.000000 5.703480
RightHandThumb1 -24.326973 -0.000000 -32.862282
LeftUpLeg 7.314877 -5.328015 5.726557
LeftLeg 18.917106 -0.000000 -0.000000
LeftFoot -9.303602 -9.641005 -13.826759
LeftToeBase -5.353547 -0.000000 0.000000
RightUpLeg -105.552794 0.085427 29.596729
RightLeg 71.954321 -0.000000 -0.000000
RightFoot 41.824883 -12.510425 13.328868
RightToeBase 32.671157 -0.000000 -0.000000
698
root 3.957628 32.985185 -2.605325 -19.814696 35.144931 -12.121859
Spine 13.648717 1.477445 4.581241
Head 12.587463 -2.872748 5.842387
LeftShoulder -20.018364 43.718434 8.389506
LeftArm 47.697903 -3.065120 -77.754254
LeftForeArm -1.151381 0.000000 10.006892
LeftHand 6.851401 -0.000000 -7.833035
LeftHandThumb1 -26.253704 0.000000 33.147579
RightShoulder -1.988434 -3.051099 -14.878295
RightArm 14.687927 -11.111853 72.275068
RightForeArm 3.455541 -0.000000 24.399079
RightHand 9.813957 -0.000000 5.878644
RightHandThumb1 -24.326973 -0.000000 -32.862282
LeftUpLeg 7.319015 -4.985860 5.123411
LeftLeg 19.041443 -0.000000 -0.000000
LeftFoot -9.124642 -10.296235 -13.891017
LeftToeBase -5.556115 -0.000000 0.000000
RightUpLeg -105.932040 0.058571 29.828837
RightLeg 71.663580 -0.000000 -0.000000
RightFoot 41.780707 -12.629392 13.346964
RightToeBase 32.549753 -0.000000 -0.000000
699
root 3.995716 32.946731 -2.619936 -19.474208 35.460707 -11.364114
Spine 13.763112 1.445515 3.903248
Head 12.386938 -2.900918 5.630927
LeftShoulder -20.145852 43.726353 8.175782
LeftArm 47.540716 -3.420108 -77.886412
LeftForeArm -1.119064 -0.000000 10.053579
LeftHand 6.868832 0.000000 -7.779420
LeftHandThumb1 -26.253704 0.000000 33.147579
RightShoulder -1.965182 -3.080636 -15.095594
RightArm 14.572604 -10.991283 72.412451
RightForeArm 3.616912 -0.000000 24.393391
RightHand 9.723072 -0.000000 5.900739
RightHandThumb1 -24.326973 -0.000000 -32.862282
LeftUpLeg 7.323183 -4.622552 4.537431
LeftLeg 19.172585 -0.000000 -0.000000
LeftFoot -8.952564 -10.957339 -14.011820
LeftToeBase -5.482069 -0.000000 0.000000
RightUpLeg -106.272448 0.065195 30.072878
RightLeg 71.331884 -0.000000 -0.000000
RightFoot 41.758627 -12.871075 13.378844
RightToeBase 32.536107 -0.000000 -0.000000
